<svg version="1.1" id="Layer_1" xmlns="http://www.w3.org/2000/svg" xmlns:xlink="http://www.w3.org/1999/xlink" x="0px" y="0px"
	 width="100%" viewBox="0 0 1024 1024" enable-background="new 0 0 1024 1024" xml:space="preserve">
<path fill="#000000" opacity="1.000000" stroke="none" 
	d="
M356.494934,880.437012 
	C382.080078,890.258667 408.197113,895.537231 435.183868,896.922546 
	C444.343414,897.392822 453.484619,897.633789 462.647919,897.649841 
	C472.620178,897.667297 479.012939,903.877136 479.362091,913.654358 
	C479.781891,925.409790 473.788208,933.522278 463.719635,934.279297 
	C441.666656,935.937317 419.803833,933.762390 398.103638,930.097046 
	C368.849304,925.155762 340.836884,916.259644 314.665894,902.091980 
	C276.150513,881.241760 246.687485,852.004272 231.046906,810.345947 
	C223.932724,791.397522 219.844772,771.729004 218.622086,751.481995 
	C214.186310,678.027832 236.266815,613.270691 283.040100,556.869873 
	C304.775360,530.660767 331.616180,510.915283 363.077209,497.705841 
	C367.390808,495.894684 369.116333,493.714386 368.813568,488.821594 
	C366.305206,448.282471 373.028748,409.254181 388.714294,371.786194 
	C407.972229,325.784790 437.788177,287.727417 475.917847,255.914673 
	C523.226990,216.443222 576.770569,188.996384 636.178955,172.949203 
	C646.605591,170.132812 657.248474,168.116058 667.795166,165.746643 
	C669.381042,165.390366 671.148132,165.498398 672.329651,163.696884 
	C670.949280,160.222778 667.829346,158.110260 665.349121,155.534027 
	C654.831543,144.609467 644.110229,133.873032 634.744812,121.906525 
	C632.902832,119.553017 631.279968,117.017067 629.691467,114.480469 
	C628.806213,113.066856 627.988953,111.349365 629.085388,109.796158 
	C630.306458,108.066467 632.094604,108.935860 633.654297,109.450684 
	C644.088257,112.894638 654.572754,116.197090 664.932922,119.851242 
	C704.819275,133.919571 744.665833,148.100464 784.522278,162.253555 
	C785.898743,162.742355 787.506104,162.910507 788.247559,164.485001 
	C781.190063,180.708344 686.050903,268.099762 673.490662,269.080566 
	C677.091614,245.997681 683.910461,223.843811 689.032349,200.750351 
	C681.448792,200.745895 674.843445,202.315002 668.273254,203.668015 
	C606.468506,216.395615 550.562073,241.840393 502.001892,282.376434 
	C461.163177,316.466949 429.851074,357.400055 414.023254,409.027100 
	C406.864075,432.378937 404.428040,456.235748 405.363281,480.532135 
	C405.393951,481.329254 405.637482,482.118225 405.863464,483.359680 
	C414.363647,481.932739 422.622192,480.307404 430.948975,479.191681 
	C460.207672,475.271179 489.201324,475.589600 516.823792,487.522827 
	C546.951782,500.538513 564.206726,523.532776 568.502441,556.289124 
	C570.331299,570.234619 568.533325,583.592529 563.169678,596.366638 
	C553.157593,620.211609 534.364441,632.605347 509.283356,636.326233 
	C455.529999,644.300720 406.691925,610.134216 387.738739,566.482178 
	C383.164215,555.946411 379.502747,545.085083 376.387421,534.234070 
	C373.606781,533.398315 371.812775,534.882324 369.926819,535.777527 
	C332.876099,553.365112 306.161407,581.650085 286.295135,616.925293 
	C270.825592,644.393616 261.194214,673.883423 257.734039,705.165344 
	C253.896042,739.863098 255.986206,774.002625 270.699371,806.407166 
	C282.105103,831.527283 300.296051,850.427307 323.916107,864.377930 
	C334.268311,870.492249 344.936920,875.919678 356.494934,880.437012 
M471.161865,514.343445 
	C469.829346,514.313660 468.495514,514.312195 467.164551,514.249817 
	C450.068604,513.448425 433.321259,515.905701 416.672272,519.485229 
	C412.152283,520.456970 410.391876,522.382935 412.196899,527.100647 
	C414.155762,532.220398 415.417694,537.606018 417.361908,542.732300 
	C423.052307,557.736267 431.077881,571.294373 443.469757,581.774231 
	C459.768982,595.558594 479.207428,601.201233 500.039001,600.408569 
	C524.280762,599.486084 532.869202,582.279602 532.425354,565.532837 
	C531.940002,547.219299 522.905579,533.312439 506.907806,524.136963 
	C496.129272,517.954956 484.272217,515.585938 471.161865,514.343445 
z"/>
</svg>